<?xml version="1.0" standalone="no"?>
<!DOCTYPE svg PUBLIC "-//W3C//DTD SVG 20010904//EN"
 "http://www.w3.org/TR/2001/REC-SVG-20010904/DTD/svg10.dtd">
<svg version="1.0" xmlns="http://www.w3.org/2000/svg"
 width="200.000000pt" height="200.000000pt" viewBox="0 0 200.000000 200.000000"
 preserveAspectRatio="xMidYMid meet">

<g transform="translate(0.000000,200.000000) scale(0.100000,-0.100000)"
fill="#000000" stroke="none">
<path d="M930 1548 c-36 -23 -83 -53 -105 -66 -22 -14 -51 -33 -65 -42 -14 -9
-40 -24 -57 -34 l-33 -17 0 -188 0 -189 157 -89 c87 -48 161 -89 165 -91 4 -2
8 23 8 56 0 71 -10 61 180 171 69 40 129 76 134 81 4 4 -1 13 -13 20 -17 8
-26 8 -41 -3 -11 -8 -17 -17 -12 -22 4 -5 1 -5 -5 -1 -17 9 -105 -43 -96 -56
3 -6 1 -8 -5 -5 -15 10 -43 -3 -35 -16 3 -6 1 -7 -6 -3 -6 4 -18 2 -26 -4 -8
-7 -15 -9 -15 -5 0 6 128 189 197 281 l23 31 -84 50 -84 51 -113 -162 c-96
-137 -122 -167 -166 -193 -62 -37 -60 -41 -62 113 -1 59 -5 112 -8 117 -3 6
-2 7 4 4 6 -4 30 6 54 21 24 16 75 45 112 66 59 34 66 40 55 55 -12 14 -11 15
4 2 15 -11 24 -10 63 13 25 15 45 28 45 30 0 4 -95 66 -101 66 -2 0 -33 -19
-69 -42z"/>
<path d="M1114 645 c-45 -48 -87 -138 -88 -189 l-1 -41 58 -2 c46 -2 62 2 78
18 23 23 30 24 23 4 -8 -20 24 -31 47 -17 10 6 20 8 23 3 3 -5 50 -9 103 -9
78 1 103 4 124 19 32 22 64 81 56 103 -15 40 -92 4 -124 -57 -17 -35 -30 -47
-51 -47 -10 0 -4 18 18 56 19 34 28 60 22 66 -11 11 -26 -6 -55 -63 -41 -80
-85 -81 -48 -1 36 76 52 92 94 94 38 1 67 21 48 32 -5 4 -12 2 -16 -4 -7 -12
-55 -14 -55 -2 0 4 5 13 12 20 9 9 8 12 -5 12 -9 0 -21 -9 -27 -19 -5 -11 -22
-21 -37 -23 -14 -2 -29 -9 -31 -17 -3 -10 0 -12 12 -8 9 4 16 2 16 -4 0 -13
-47 -97 -68 -121 -38 -45 -43 -2 -7 60 35 61 8 53 -43 -13 -24 -30 -48 -55
-53 -55 -12 0 -2 36 17 65 8 11 14 26 14 34 0 23 -24 -4 -53 -59 -18 -34 -29
-45 -47 -45 -37 0 -33 16 16 75 60 73 97 137 90 155 -9 23 -26 18 -62 -20z m7
-54 c-33 -51 -61 -81 -61 -64 0 17 80 127 87 119 3 -3 -9 -28 -26 -55z m393
-70 c9 -14 -55 -90 -76 -91 -17 0 -6 40 18 69 26 31 48 39 58 22z"/>
<path d="M297 654 c-16 -9 -39 -13 -52 -10 -13 3 -26 2 -29 -3 -10 -16 23 -34
49 -27 31 8 31 3 -1 -40 -17 -22 -35 -34 -50 -34 -13 0 -24 -4 -24 -10 0 -5 7
-10 15 -10 21 0 19 -10 -10 -52 -28 -41 -31 -58 -12 -58 7 0 27 25 45 55 33
55 33 55 83 55 27 0 49 -3 49 -7 0 -5 -11 -26 -25 -48 -28 -47 -30 -55 -11
-55 8 0 31 28 52 63 21 34 55 88 76 119 40 60 46 78 26 78 -7 0 -29 -25 -48
-56 -19 -31 -45 -60 -58 -65 -25 -10 -92 -12 -92 -4 0 3 16 29 35 58 19 28 35
55 35 59 0 12 -22 9 -53 -8z"/>
<path d="M763 641 c-47 -23 -64 -36 -69 -56 -9 -34 7 -50 71 -68 28 -8 51 -21
53 -29 7 -34 -127 -64 -157 -35 -10 10 -12 7 -9 -13 3 -22 9 -25 48 -28 58 -4
110 11 139 42 34 36 21 61 -46 86 -74 28 -76 29 -62 47 27 32 86 53 132 47 46
-7 73 10 46 27 -27 17 -85 9 -146 -20z"/>
<path d="M484 552 c-19 -12 -83 -131 -75 -137 5 -2 30 20 56 50 45 54 70 70
59 40 -10 -24 14 -17 32 10 24 36 9 50 -31 27 -32 -19 -32 -19 -28 -1 6 21 4
23 -13 11z"/>
<path d="M1739 537 c-44 -30 -45 -58 -1 -69 39 -10 41 -25 5 -34 -18 -5 -30
-2 -38 10 -11 14 -14 15 -25 1 -15 -18 -40 -20 -40 -2 0 6 11 30 25 52 13 22
25 43 25 48 0 12 -35 8 -58 -8 -20 -15 -21 -15 -15 1 4 12 2 15 -8 12 -18 -6
-88 -120 -81 -132 3 -5 29 17 58 50 57 64 78 69 43 10 -31 -54 -22 -63 60 -64
53 -1 75 3 92 17 29 23 20 47 -20 56 -39 8 -39 20 -2 40 21 11 31 11 33 3 6
-16 38 -2 38 17 0 23 -52 19 -91 -8z"/>
<path d="M911 516 c-22 -23 -33 -44 -34 -67 -2 -30 1 -34 24 -37 46 -5 126 93
104 127 -14 23 -61 11 -94 -23z m69 -1 c0 -23 -65 -89 -78 -81 -9 5 -9 13 -1
29 28 54 79 87 79 52z"/>
</g>
</svg>
